<?xml version="1.0" standalone="no"?>
<!DOCTYPE svg PUBLIC "-//W3C//DTD SVG 20010904//EN"
 "http://www.w3.org/TR/2001/REC-SVG-20010904/DTD/svg10.dtd">
<svg version="1.0" xmlns="http://www.w3.org/2000/svg"
 width="225.000000pt" height="225.000000pt" viewBox="0 0 225.000000 225.000000"
 preserveAspectRatio="xMidYMid meet">
<metadata>
Created by potrace 1.11, written by Peter Selinger 2001-2013
</metadata>
<g transform="translate(0.000000,225.000000) scale(0.100000,-0.100000)"
fill="#000000" stroke="none">
<path d="M1072 2100 c-21 -13 -35 -31 -38 -50 -5 -25 -13 -32 -48 -41 -49 -13
-66 -26 -66 -49 0 -12 -17 -26 -45 -40 -93 -45 -164 -156 -180 -281 -7 -53
-12 -61 -71 -120 -61 -60 -64 -66 -64 -111 0 -57 -18 -63 -62 -21 -35 33 -79
35 -113 3 -31 -29 -32 -68 -4 -104 28 -36 89 -37 117 -1 11 14 29 25 40 25 18
0 21 -7 24 -47 l3 -48 89 -45 c84 -43 90 -47 102 -88 6 -23 19 -54 28 -67 9
-13 16 -26 16 -28 0 -2 -39 -7 -86 -10 -101 -7 -170 -35 -228 -93 -44 -44 -85
-124 -87 -169 -2 -58 -13 -76 -53 -90 -45 -16 -109 -74 -131 -121 -8 -17 -21
-61 -29 -97 -12 -60 -12 -68 4 -82 45 -41 394 -134 625 -167 139 -20 513 -16
660 6 205 31 538 122 584 159 20 17 6 121 -25 185 -28 57 -73 97 -131 117 -39
14 -50 32 -52 90 -2 45 -43 125 -87 169 -58 58 -127 86 -228 93 -47 3 -86 8
-86 10 0 2 7 15 16 28 9 13 22 44 28 67 12 41 18 45 102 88 l89 45 3 48 c3 40
6 47 24 47 11 0 29 -11 40 -25 28 -36 89 -35 117 1 28 36 27 75 -4 104 -34 32
-78 30 -113 -3 -44 -42 -62 -36 -62 21 0 45 -3 51 -64 111 -59 59 -64 67 -71
120 -16 125 -87 236 -180 281 -28 14 -45 28 -45 40 0 23 -17 36 -66 49 -35 9
-43 16 -48 41 -6 32 -55 70 -91 70 -11 0 -35 -9 -53 -20z m83 -1710 c3 -5 -3
-10 -15 -10 -12 0 -28 -13 -40 -32 l-20 -33 0 31 c0 16 5 35 12 42 15 15 54
16 63 2z"/>
</g>
</svg>
